<svg id="Layer_1" data-name="Layer 1" xmlns="http://www.w3.org/2000/svg" viewBox="0 0 288 288"><defs><style>.cls-1{font-size:48px;font-family:PTSans-Bold, PT Sans;font-weight:700;}.cls-2{letter-spacing:-0.01em;}.cls-3{letter-spacing:-0.01em;}.cls-4{font-size:36px;font-family:PTSans-Regular, PT Sans;}</style></defs><title>splash</title><path d="M250.76,3,285,37.24V250.76L250.76,285H37.24L3,250.76V37.24L37.24,3H250.76M252,0H36L0,36V252l36,36H252l36-36V36L252,0Z"/><path d="M144.16,26.69q19.18,0,28.22,20.27a60.2,60.2,0,0,1,1.42,9.7q0,10.46-10.79,24.85l-5.34,5.34h.22a39.81,39.81,0,0,1,14.17-2.51h1.74q21.25,0,29.86,18.09a34.13,34.13,0,0,1,2.07,11.33q0,18.31-18.74,27.68a48.88,48.88,0,0,1-9.92,1.63q-21.69,0-30.73-24.63h-.22v.87q0,30.73,7.3,40.43v.54H134.79l-.54-.54q7.63-11.44,7.63-41.3v-.22h-.22q-8.94,24.85-30.95,24.85-17.11,0-26.26-18.09a33.55,33.55,0,0,1-2.18-11.22q0-20.92,22-28.33a58.46,58.46,0,0,1,10.46-1.09h.87a42.85,42.85,0,0,1,14.6,2.51h.33v-.22Q123,80.19,120.41,74.09q-5.34-9.91-5.34-17.11V55.68q0-18,19.18-27.35A43.56,43.56,0,0,1,144.16,26.69Z"/><text class="cls-1" transform="translate(29.35 214.5)"><tspan class="cls-2">C</tspan><tspan x="26.3" y="0">ard</tspan><tspan class="cls-3" x="92.83" y="0"> </tspan><tspan class="cls-2" x="104.35" y="0">C</tspan><tspan x="130.66" y="0">reatr</tspan></text><text class="cls-4" transform="translate(65.21 258) scale(1.3 1)">STUDIO</text></svg>