<svg id="Layer_1" data-name="Layer 1" xmlns="http://www.w3.org/2000/svg" xmlns:xlink="http://www.w3.org/1999/xlink" viewBox="0 0 768 992"><defs><style>.cls-1,.cls-5{fill:none;}.cls-2{fill:#fff;}.cls-3,.cls-4{fill:#00909b;}.cls-4,.cls-5{stroke:#000;stroke-miterlimit:10;stroke-width:10px;}.cls-6{clip-path:url(#clip-path);}</style><clipPath id="clip-path"><rect class="cls-1" x="40.07" y="30" width="478.93" height="110"/></clipPath></defs><title>ccst</title><polygon class="cls-2" points="35 957 35 35 515.93 35 733 252.07 733 957 35 957"/><path d="M513.86,40,728,254.14V952H40V40H513.86M518,30H30V962H738V250L518,30Z"/><polygon class="cls-3" points="523 245 523 42.07 725.93 245 523 245"/><path d="M528,54.14,713.86,240H528V54.14M518,30V250H738L518,30Z"/><path class="cls-4" d="M379.45,191.54q52.82,0,77.72,55.82a165.78,165.78,0,0,1,3.9,26.71q0,28.81-29.71,68.42l-14.7,14.7h.6a109.64,109.64,0,0,1,39-6.9h4.8q58.52,0,82.22,49.81a94,94,0,0,1,5.7,31.21q0,50.41-51.62,76.22-9.61,3-27.31,4.5c-39.81,0-58-22.61-74.62-67.82h-.6v2.4c0,56.42-3.3,93.53,10.11,111.33v1.5H353.64l-1.5-1.5c14-21,11-58.92,11-113.73v-.6h-.6C346.14,489.22,327.73,512,287.32,512q-47.11,0-72.32-49.81-6-16.8-6-30.91,0-57.62,60.62-78a161,161,0,0,1,28.81-3h2.4a118,118,0,0,1,40.21,6.9h.9v-.6Q321.23,338.88,314,322.07q-14.7-27.3-14.7-47.11v-3.6q0-49.51,52.82-75.32Q369.85,191.54,379.45,191.54Z"/><rect class="cls-3" x="35" y="614" width="588" height="276"/><path d="M618,619V885H40V619H618m10-10H30V895H628V609Z"/><path class="cls-2" d="M211.78,822.32a61.48,61.48,0,0,1-19.56,8.4,96.15,96.15,0,0,1-23.64,2.88q-16.32,0-27.48-4.8a46.17,46.17,0,0,1-18.24-13.68,55.24,55.24,0,0,1-10.2-21,108.21,108.21,0,0,1-3.12-27q0-31.44,15.48-49.08t45-17.64q14.4,0,23.64,2.28a79.35,79.35,0,0,1,16.44,5.88l-8.16,26.88a69.43,69.43,0,0,0-12.36-4,68.51,68.51,0,0,0-14.28-1.32q-15.12,0-23.16,8.76t-8,28.2A50.8,50.8,0,0,0,146,781.4,32.79,32.79,0,0,0,152,793,28.27,28.27,0,0,0,162.34,801,34.63,34.63,0,0,0,177,803.84q10.08,0,16-1.8a51.49,51.49,0,0,0,11.16-4.92Z"/><path class="cls-2" d="M327,822.32a61.48,61.48,0,0,1-19.56,8.4,96.16,96.16,0,0,1-23.64,2.88q-16.32,0-27.48-4.8a46.15,46.15,0,0,1-18.24-13.68,55.24,55.24,0,0,1-10.2-21,108.26,108.26,0,0,1-3.12-27q0-31.44,15.48-49.08t45-17.64q14.4,0,23.64,2.28a79.33,79.33,0,0,1,16.44,5.88l-8.16,26.88a69.46,69.46,0,0,0-12.36-4,68.5,68.5,0,0,0-14.28-1.32q-15.12,0-23.16,8.76t-8,28.2a50.8,50.8,0,0,0,1.92,14.28,32.78,32.78,0,0,0,6,11.64A28.27,28.27,0,0,0,277.54,801a34.63,34.63,0,0,0,14.64,2.88q10.08,0,16-1.8a51.51,51.51,0,0,0,11.16-4.92Z"/><path class="cls-2" d="M351.7,797.36a82.69,82.69,0,0,0,7.8,3.36q4.44,1.68,9.6,3.12t10.56,2.4a62.18,62.18,0,0,0,10.92,1q8.4,0,13.08-2.64t4.68-9.84q0-5.76-6.24-8.52a124.38,124.38,0,0,0-15.36-5.4q-6.72-1.92-14-4.56a53.72,53.72,0,0,1-13.44-7.08,34.87,34.87,0,0,1-10.08-11.64q-4-7.2-4-18.24,0-19,11.76-28.92t33.84-10a137.63,137.63,0,0,1,27,2.52,101.63,101.63,0,0,1,20.28,5.88l-7,25.44a152.45,152.45,0,0,0-16-4.92,78.58,78.58,0,0,0-19.8-2.52q-8.4,0-12.48,2.52t-4.08,8.76q0,5.52,6.36,8.28a129.83,129.83,0,0,0,15.48,5.4q6.72,1.92,14,4.44A51.17,51.17,0,0,1,428,763a35.4,35.4,0,0,1,10,11.16q4,6.84,4,17.16,0,20.16-13.08,31.2t-39.24,11a130.89,130.89,0,0,1-26.4-2.52q-12.24-2.52-19.92-7.32Z"/><path class="cls-2" d="M452.5,704h19.2V686.72l33.6-8.88V704h33.84v28.08H505.3v43.68q0,15.12,3,21.72t11.88,6.6a44.41,44.41,0,0,0,9.36-.84,42.5,42.5,0,0,0,8.16-2.76l7,25.2A105.87,105.87,0,0,1,527,831.44a82.55,82.55,0,0,1-19.32,2.4q-18.72,0-27.36-9.24T471.7,795V732.08H452.5Z"/><line class="cls-5" x1="30" y1="135" x2="518" y2="135"/><g class="cls-6"><polygon class="cls-3" points="7.07 135 107.07 35 190.8 35 90.8 135 7.07 135"/><path d="M178.73,40l-90,90H19.14l90-90h69.59m24.14-10H105L-5,140H92.88l110-110Z"/><polygon class="cls-3" points="169.57 135 269.57 35 353.3 35 253.3 135 169.57 135"/><path d="M341.23,40l-90,90H181.64l90-90h69.59m24.14-10H267.5l-110,110h97.88l110-110Z"/><polygon class="cls-3" points="332.2 135 432.2 35 515.93 35 415.93 135 332.2 135"/><path d="M503.86,40l-90,90H344.27l90-90h69.59M528,30H430.13l-110,110H418L528,30Z"/></g></svg>