<svg id="Layer_1" data-name="Layer 1" xmlns="http://www.w3.org/2000/svg" xmlns:xlink="http://www.w3.org/1999/xlink" viewBox="0 0 256 256"><defs><style>.cls-1{fill:url(#radial-gradient);}.cls-2{fill:#fff;}</style><radialGradient id="radial-gradient" cx="62.34" cy="29.51" r="299.26" gradientUnits="userSpaceOnUse"><stop offset="0" stop-color="#00b9d4"/><stop offset="1" stop-color="#0081aa"/></radialGradient></defs><title>icon</title><path class="cls-1" d="M128,251A123,123,0,1,1,251,128,123.14,123.14,0,0,1,128,251Z"/><path class="cls-2" d="M128,10a118,118,0,0,1,83.44,201.44A118,118,0,0,1,44.56,44.56,117.23,117.23,0,0,1,128,10m0-10A128,128,0,1,0,256,128,128,128,0,0,0,128,0Z"/><path class="cls-2" d="M128.19,42.86q22.86,0,33.64,24.16a71.76,71.76,0,0,1,1.69,11.56q0,12.47-12.86,29.62l-6.36,6.36h.26a47.46,47.46,0,0,1,16.89-3h2.08q25.33,0,35.59,21.56a40.68,40.68,0,0,1,2.47,13.51q0,21.82-22.34,33a58.26,58.26,0,0,1-11.82,1.95q-25.85,0-36.63-29.36h-.26v1q0,36.63,8.7,48.19v.65H117l-.65-.65q9.09-13.64,9.09-49.23V152h-.26q-10.65,29.62-36.89,29.62Q67.92,181.59,57,160a40,40,0,0,1-2.6-13.38q0-24.94,26.24-33.77a69.68,69.68,0,0,1,12.47-1.3h1a51.08,51.08,0,0,1,17.41,3H112v-.26q-9-7.66-12.08-14.94Q93.51,87.55,93.51,79V77.41q0-21.43,22.86-32.6A51.92,51.92,0,0,1,128.19,42.86Z"/></svg>